#!Matlab matrix to amc conversion
:FULLY-SPECIFIED
:DEGREES
16
root 9.192140 16.357400 -29.724600 1.075130 1.634016 -0.027415
lowerback 12.970989 1.360069 -0.087150
upperback -0.786228 1.922638 1.425534
thorax -8.182272 0.969013 1.194592
lowerneck -11.136520 -0.846429 -2.706771
upperneck 24.490216 -0.529098 -0.493153
head 9.740137 -0.528751 0.203862
rclavicle -0.000000 0.000000
rhumerus -34.159169 -7.200962 -78.566551
rradius 30.987878
rwrist 0.191690
rhand -13.619122 12.253135
rfingers 7.125020
rthumb 12.493409 -17.324334
lclavicle -0.000000 0.000000
lhumerus -40.784856 8.589308 82.825122
lradius 35.806956
lwrist 5.149195
lhand -12.392517 46.150277
lfingers 7.125020
lthumb 13.680530 75.646699
rfemur -0.782143 2.671222 23.839218
rtibia 51.903561
rfoot 7.135676 -6.921036
rtoes 5.209349
lfemur -15.814817 -6.295587 -22.782078
ltibia 24.883253
lfoot -5.743037 3.754587
ltoes -5.499509
17
root 9.191770 16.245600 -29.440800 0.935869 1.634016 -0.065626
lowerback 13.623344 1.158131 -0.941866
upperback -0.713498 1.487021 1.182816
thorax -8.458994 0.795884 1.625603
lowerneck -10.841031 -0.706757 -2.613775
upperneck 24.299850 -0.328541 -0.672923
head 9.610052 -0.443451 0.144576
rclavicle -0.000000 0.000000
rhumerus -34.739228 -7.686558 -78.352254
rradius 30.114384
rwrist 0.974213
rhand -13.475585 12.628902
rfingers 7.125020
rthumb 12.632404 -16.947721
lclavicle -0.000000 0.000000
lhumerus -40.457599 8.083212 83.052145
lradius 36.411512
lwrist 5.396501
lhand -12.339322 46.291886
lfingers 7.125020
lthumb 13.737681 75.787289
rfemur -6.301310 1.462373 22.143336
rtibia 60.164292
rfoot 6.934616 -7.552251
rtoes 6.204072
lfemur -13.203987 -5.885061 -24.640121
ltibia 24.805811
lfoot -6.380322 2.438834
ltoes -4.790476
18
root 9.208550 16.156600 -29.151500 0.732211 1.634016 -0.124376
lowerback 14.278351 0.928417 -1.978697
upperback -0.637871 1.002264 0.932485
thorax -8.735541 0.601678 2.086526
lowerneck -10.535166 -0.563686 -2.506901
upperneck 24.106548 -0.122136 -0.871185
head 9.478263 -0.355883 0.071099
rclavicle -0.000000 0.000000
rhumerus -35.332919 -8.151715 -78.149030
rradius 29.208980
rwrist 1.766763
rhand -13.310513 13.018704
rfingers 7.125020
rthumb 12.792125 -16.552693
lclavicle -0.000000 0.000000
lhumerus -40.069817 7.549318 83.275822
lradius 37.101990
lwrist 5.688163
lhand -12.268727 46.414179
lfingers 7.125020
lthumb 13.811962 75.907422
rfemur -12.041742 0.109180 20.203472
rtibia 69.012621
rfoot 5.243685 -8.681535
rtoes 6.918312
lfemur -10.511596 -5.459440 -26.678451
ltibia 24.708261
lfoot -7.136413 1.205126
ltoes -3.733295
19
root 9.222000 16.080900 -28.855000 0.789798 1.634016 -0.099574
lowerback 14.377806 0.686214 -2.702859
upperback -0.428449 0.535986 0.946170
thorax -8.519690 0.402072 2.559507
lowerneck -10.674341 -0.410105 -2.007856
upperneck 24.048556 0.129771 -1.438926
head 9.493023 -0.255241 -0.196539
rclavicle -0.000000 0.000000
rhumerus -35.314092 -8.397824 -78.090065
rradius 29.619029
rwrist 1.202041
rhand -13.214566 12.222196
rfingers 7.125020
rthumb 12.882068 -17.336970
lclavicle -0.000000 0.000000
lhumerus -39.131497 6.845362 83.366004
lradius 38.506945
lwrist 6.232230
lhand -13.016774 46.080531
lfingers 7.125020
lthumb 13.083714 75.603414
rfemur -15.812686 -0.255645 19.473824
rtibia 66.737709
rfoot 0.856310 -8.805695
rtoes 6.341354
lfemur -8.516897 -5.571775 -27.584539
ltibia 25.020854
lfoot -8.689564 1.392802
ltoes -4.311593
20
root 9.232280 16.013400 -28.551200 0.843971 1.634016 -0.093633
lowerback 14.469322 0.476895 -3.305880
upperback -0.230915 0.127351 0.958791
thorax -8.311708 0.227260 2.996733
lowerneck -10.792308 -0.259469 -1.576374
upperneck 23.989869 0.375511 -1.948887
head 9.506687 -0.156534 -0.416849
rclavicle -0.000000 0.000000
rhumerus -35.313178 -8.635650 -78.033874
rradius 29.873354
rwrist 0.738719
rhand -13.120748 11.701841
rfingers 7.125020
rthumb 12.969892 -17.843392
lclavicle -0.000000 0.000000
lhumerus -38.291640 6.194161 83.442213
lradius 39.738667
lwrist 6.750778
lhand -13.738404 45.742309
lfingers 7.125020
lthumb 12.381248 75.294106
rfemur -19.148078 -0.520699 18.854932
rtibia 64.465935
rfoot -2.472931 -8.900521
rtoes 5.869372
lfemur -6.672337 -5.665218 -28.396768
ltibia 25.212695
lfoot -10.058985 1.585347
ltoes -4.805041
21
root 9.239730 15.970900 -28.241000 0.903048 1.634016 -0.092813
lowerback 14.553901 0.283788 -3.834142
upperback -0.041429 -0.249846 0.970868
thorax -8.106563 0.065373 3.412938
lowerneck -10.897856 -0.110215 -1.184612
upperneck 23.929648 0.617904 -2.421328
head 9.519493 -0.058716 -0.608318
rclavicle -0.000000 0.000000
rhumerus -35.330131 -8.878492 -77.978075
rradius 30.035568
rwrist 0.334245
rhand -13.026928 11.337102
rfingers 7.125020
rthumb 13.057590 -18.193969
lclavicle -0.000000 0.000000
lhumerus -37.496343 5.572239 83.507091
lradius 40.890138
lwrist 7.262150
lhand -14.457466 45.393089
lfingers 7.125020
lthumb 11.681385 74.973684
rfemur -22.237110 -0.710357 18.306002
rtibia 61.951433
rfoot -5.228172 -8.978940
rtoes 5.434393
lfemur -4.904192 -5.746811 -29.150250
ltibia 25.314919
lfoot -11.341969 1.786594
ltoes -5.294184
22
root 9.241850 15.946000 -27.925100 0.976097 1.634016 -0.095217
lowerback 14.632471 0.091511 -4.328282
upperback 0.143692 -0.619792 0.982897
thorax -7.899290 -0.094581 3.822145
lowerneck -10.998849 0.039208 -0.807288
upperneck 23.867027 0.859733 -2.875018
head 9.531664 0.039248 -0.787016
rclavicle -0.000000 0.000000
rhumerus -35.365827 -9.139931 -77.920305
rradius 30.146245
rwrist -0.048531
rhand -12.930976 11.043487
rfingers 7.125020
rthumb 13.147152 -18.473163
lclavicle -0.000000 0.000000
lhumerus -36.694562 4.957177 83.562890
lradius 42.048282
lwrist 7.784434
lhand -15.197725 45.026241
lfingers 7.125020
lthumb 10.961031 74.636127
rfemur -25.255003 -0.842061 17.790852
rtibia 58.922067
rfoot -7.810077 -9.051647
rtoes 4.973774
lfemur -3.141788 -5.822700 -29.877559
ltibia 25.344119
lfoot -12.629670 2.000547
ltoes -5.858863
23
root 9.242890 15.925900 -27.604900 1.074333 1.634016 -0.106403
lowerback 14.705893 -0.115249 -4.826308
upperback 0.328047 -1.006210 0.995372
thorax -7.684876 -0.263463 4.238143
lowerneck -11.102813 0.190350 -0.420054
upperneck 23.801110 1.103775 -3.327978
head 9.543413 0.138396 -0.967939
rclavicle -0.000000 0.000000
rhumerus -35.422113 -9.434587 -77.858115
rradius 30.233066
rwrist -0.444765
rhand -12.830713 10.752983
rfingers 7.125020
rthumb 13.240610 -18.748242
lclavicle -0.000000 0.000000
lhumerus -35.834834 4.326805 83.611545
lradius 43.300525
lwrist 8.336107
lhand -15.983642 44.634799
lfingers 7.125020
lthumb 10.196415 74.275089
rfemur -28.372939 -0.927924 17.275526
rtibia 55.049983
rfoot -10.594103 -9.128554
rtoes 4.421180
lfemur -1.314684 -5.898605 -30.610138
ltibia 25.305034
lfoot -14.013575 2.231467
ltoes -6.591247
